# Blender 3.5.0
# www.blender.org
mtllib basicmodel.mtl
o Cube
v 1.000000 1.000000 -1.000000
v 1.000000 -0.002894 -1.000000
v 1.000000 1.000000 1.000000
v 1.000000 -0.051675 1.000000
v -1.000000 1.000000 -1.000000
v -1.000000 -0.002894 -1.000000
v -1.000000 1.000000 1.000000
v -1.000000 -0.051675 1.000000
v 1.000000 2.694625 1.000000
v -1.000000 2.694625 1.000000
v 1.000000 2.694625 -1.000000
v -1.000000 2.694625 -1.000000
v -1.000000 -0.465048 2.955828
v -1.000000 0.293966 2.955828
v 1.000000 0.293966 2.955828
v 1.000000 -0.465048 2.955828
v 1.000000 -0.356043 -2.777909
v -1.000000 -0.356043 -2.777909
v 1.000000 0.438764 -2.777909
v -1.000000 0.438764 -2.777909
v -1.000000 -1.000000 0.000000
v 1.000000 -1.000000 0.000000
v -1.000000 -2.903632 0.567153
v -1.000000 -2.903632 1.567153
v 1.000000 -2.903632 1.567153
v 1.000000 -2.903632 0.567153
v 1.000000 -2.870640 -1.321324
v -1.000000 -2.870640 -1.321324
v 1.000000 -2.870640 -0.321324
v -1.000000 -2.870640 -0.321324
vn 1.0000 -0.0000 -0.0000
vn -1.0000 -0.0000 -0.0000
vn -0.0000 0.1950 0.9808
vn -0.0000 1.0000 -0.0000
vn -0.0000 -0.0000 -1.0000
vn -0.0000 -0.0000 1.0000
vn -0.0000 -0.9784 -0.2068
vn -0.0000 0.9406 0.3395
vn -0.0000 -0.9808 0.1948
vn -0.0000 0.9536 -0.3010
vn -0.0000 -1.0000 -0.0000
vn -0.0000 -0.2855 -0.9584
vn -0.0000 0.1114 -0.9938
vn -0.0000 -0.1693 0.9856
vt 0.625000 0.500000
vt 0.375000 0.500000
vt 0.625000 0.750000
vt 0.375000 0.750000
vt 0.625000 0.250000
vt 0.375000 0.250000
vt 0.125000 0.500000
vt 0.625000 0.000000
vt 0.625000 1.000000
vt 0.125000 0.750000
vt 0.375000 0.000000
vt 0.625000 0.750000
vt 0.875000 0.750000
vt 0.625000 1.000000
vt 0.625000 0.000000
vt 0.625000 0.500000
vt 0.875000 0.500000
vt 0.625000 0.250000
vt 0.375000 0.000000
vt 0.375000 1.000000
vt 0.125000 0.750000
vt 0.625000 0.000000
vt 0.625000 1.000000
vt 0.625000 0.750000
vt 0.375000 0.750000
vt 0.375000 0.500000
vt 0.375000 0.250000
vt 0.125000 0.500000
vt 0.625000 0.500000
vt 0.625000 0.250000
vt 0.375000 0.125000
vt 0.125000 0.625000
vt 0.375000 0.625000
vt 0.375000 0.125000
vt 0.125000 0.625000
vt 0.125000 0.750000
vt 0.375000 0.000000
vt 0.375000 0.750000
vt 0.375000 0.625000
vt 0.375000 0.500000
vt 0.375000 0.250000
vt 0.125000 0.500000
vt 0.375000 0.625000
vt 0.375000 0.125000
vt 0.125000 0.625000
s 0
usemtl Material
f 3/3/1 1/1/1 11/16/1 9/12/1
f 7/8/2 8/11/2 13/19/2 14/22/2
f 8/11/2 7/8/2 5/5/2 6/6/2 21/31/2
f 4/4/3 8/10/3 24/36/3 25/38/3
f 2/2/1 1/1/1 3/3/1 4/4/1 22/33/1
f 6/6/2 5/5/2 20/30/2 18/27/2
f 11/16/4 12/17/4 10/13/4 9/12/4
f 1/1/5 5/5/5 12/18/5 11/16/5
f 7/9/6 3/3/6 9/12/6 10/14/6
f 5/5/2 7/8/2 10/15/2 12/18/2
f 16/25/6 15/24/6 14/23/6 13/20/6
f 8/10/7 4/4/7 16/25/7 13/21/7
f 3/3/8 7/9/8 14/23/8 15/24/8
f 4/4/1 3/3/1 15/24/1 16/25/1
f 18/27/5 20/30/5 19/29/5 17/26/5
f 2/2/9 6/7/9 18/28/9 17/26/9
f 5/5/10 1/1/10 19/29/10 20/30/10
f 1/1/1 2/2/1 17/26/1 19/29/1
f 21/31/2 6/6/2 28/41/2 30/44/2
f 23/35/11 26/39/11 25/38/11 24/36/11
f 22/33/1 4/4/1 25/38/1 26/39/1
f 8/11/2 21/31/2 23/34/2 24/37/2
f 21/32/12 22/33/12 26/39/12 23/35/12
f 28/42/11 27/40/11 29/43/11 30/45/11
f 6/7/13 2/2/13 27/40/13 28/42/13
f 2/2/1 22/33/1 29/43/1 27/40/1
f 22/33/14 21/32/14 30/45/14 29/43/14
