# Blender 3.4.1
# www.blender.org
mtllib Candle.mtl
o Cylinder.001
v 0.000000 0.577800 0.012378
v 0.000000 0.731277 0.012378
v -0.002415 0.577800 0.012140
v -0.002415 0.731277 0.012140
v -0.004737 0.577800 0.011436
v -0.004737 0.731277 0.011436
v -0.006877 0.577800 0.010292
v -0.006877 0.731277 0.010292
v -0.008752 0.577800 0.008752
v -0.008752 0.731277 0.008752
v -0.010292 0.577800 0.006877
v -0.010292 0.731277 0.006877
v -0.011436 0.577800 0.004737
v -0.011436 0.731277 0.004737
v -0.012140 0.577800 0.002415
v -0.012140 0.731277 0.002415
v -0.012378 0.577800 0.000000
v -0.012378 0.731277 0.000000
v -0.012140 0.577800 -0.002415
v -0.012140 0.731277 -0.002415
v -0.011436 0.577800 -0.004737
v -0.011436 0.731277 -0.004737
v -0.010292 0.577800 -0.006877
v -0.010292 0.731277 -0.006877
v -0.008752 0.577800 -0.008752
v -0.008752 0.731277 -0.008752
v -0.006877 0.577800 -0.010292
v -0.006877 0.731277 -0.010292
v -0.004737 0.577800 -0.011436
v -0.004737 0.731277 -0.011436
v -0.002415 0.577800 -0.012140
v -0.002415 0.731277 -0.012140
v 0.000000 0.577800 -0.012378
v 0.000000 0.731277 -0.012378
v 0.002415 0.577800 -0.012140
v 0.002415 0.731277 -0.012140
v 0.004737 0.577800 -0.011436
v 0.004737 0.731277 -0.011436
v 0.006877 0.577800 -0.010292
v 0.006877 0.731277 -0.010292
v 0.008752 0.577800 -0.008752
v 0.008752 0.731277 -0.008752
v 0.010292 0.577800 -0.006877
v 0.010292 0.731277 -0.006877
v 0.011436 0.577800 -0.004737
v 0.011436 0.731277 -0.004737
v 0.012140 0.577800 -0.002415
v 0.012140 0.731277 -0.002415
v 0.012378 0.577800 0.000000
v 0.012378 0.731277 0.000000
v 0.012140 0.577800 0.002415
v 0.012140 0.731277 0.002415
v 0.011436 0.577800 0.004737
v 0.011436 0.731277 0.004737
v 0.010292 0.577800 0.006877
v 0.010292 0.731277 0.006877
v 0.008752 0.577800 0.008752
v 0.008752 0.731277 0.008752
v 0.006877 0.577800 0.010292
v 0.006877 0.731277 0.010292
v 0.004737 0.577800 0.011436
v 0.004737 0.731277 0.011436
v 0.002415 0.577800 0.012140
v 0.002415 0.731277 0.012140
v 0.000000 -0.597327 0.151480
v 0.000000 0.597327 0.151480
v -0.029552 -0.597327 0.148569
v -0.029552 0.597327 0.148569
v -0.057969 -0.597327 0.139949
v -0.057969 0.597327 0.139949
v -0.084158 -0.597327 0.125951
v -0.084158 0.597327 0.125951
v -0.107113 -0.597327 0.107113
v -0.107113 0.597327 0.107113
v -0.125951 -0.597327 0.084158
v -0.125951 0.597327 0.084158
v -0.139949 -0.597327 0.057969
v -0.139949 0.597327 0.057969
v -0.148569 -0.597327 0.029552
v -0.148569 0.597327 0.029552
v -0.151480 -0.597327 0.000000
v -0.151480 0.597327 0.000000
v -0.148569 -0.597327 -0.029552
v -0.148569 0.597327 -0.029552
v -0.139949 -0.597327 -0.057969
v -0.139949 0.597327 -0.057969
v -0.125951 -0.597327 -0.084158
v -0.125951 0.597327 -0.084158
v -0.107113 -0.597327 -0.107113
v -0.107113 0.597327 -0.107113
v -0.084158 -0.597327 -0.125951
v -0.084158 0.597327 -0.125951
v -0.057969 -0.597327 -0.139949
v -0.057969 0.597327 -0.139949
v -0.029552 -0.597327 -0.148569
v -0.029552 0.597327 -0.148569
v 0.000000 -0.597327 -0.151480
v 0.000000 0.597327 -0.151480
v 0.029552 -0.597327 -0.148569
v 0.029552 0.597327 -0.148569
v 0.057969 -0.597327 -0.139949
v 0.057969 0.597327 -0.139949
v 0.084158 -0.597327 -0.125951
v 0.084158 0.597327 -0.125951
v 0.107113 -0.597327 -0.107113
v 0.107113 0.597327 -0.107113
v 0.125951 -0.597327 -0.084158
v 0.125951 0.597327 -0.084158
v 0.139949 -0.597327 -0.057969
v 0.139949 0.597327 -0.057969
v 0.148569 -0.597327 -0.029552
v 0.148569 0.597327 -0.029552
v 0.151480 -0.597327 0.000000
v 0.151480 0.597327 0.000000
v 0.148569 -0.597327 0.029552
v 0.148569 0.597327 0.029552
v 0.139949 -0.597327 0.057969
v 0.139949 0.597327 0.057969
v 0.125951 -0.597327 0.084158
v 0.125951 0.597327 0.084158
v 0.107113 -0.597327 0.107113
v 0.107113 0.597327 0.107113
v 0.084158 -0.597327 0.125951
v 0.084158 0.597327 0.125951
v 0.057969 -0.597327 0.139949
v 0.057969 0.597327 0.139949
v 0.029552 -0.597327 0.148569
v 0.029552 0.597327 0.148569
vn -0.0980 -0.0000 0.9952
vn -0.2903 -0.0000 0.9569
vn -0.4714 -0.0000 0.8819
vn -0.6344 -0.0000 0.7730
vn -0.7730 -0.0000 0.6344
vn -0.8819 -0.0000 0.4714
vn -0.9569 -0.0000 0.2903
vn -0.9952 -0.0000 0.0980
vn -0.9952 -0.0000 -0.0980
vn -0.9569 -0.0000 -0.2903
vn -0.8819 -0.0000 -0.4714
vn -0.7730 -0.0000 -0.6344
vn -0.6344 -0.0000 -0.7730
vn -0.4714 -0.0000 -0.8819
vn -0.2903 -0.0000 -0.9569
vn -0.0980 -0.0000 -0.9952
vn 0.0980 -0.0000 -0.9952
vn 0.2903 -0.0000 -0.9569
vn 0.4714 -0.0000 -0.8819
vn 0.6344 -0.0000 -0.7730
vn 0.7730 -0.0000 -0.6344
vn 0.8819 -0.0000 -0.4714
vn 0.9569 -0.0000 -0.2903
vn 0.9952 -0.0000 -0.0980
vn 0.9952 -0.0000 0.0980
vn 0.9569 -0.0000 0.2903
vn 0.8819 -0.0000 0.4714
vn 0.7730 -0.0000 0.6344
vn 0.6344 -0.0000 0.7730
vn 0.4714 -0.0000 0.8819
vn -0.0000 1.0000 -0.0000
vn 0.2903 -0.0000 0.9569
vn 0.0980 -0.0000 0.9952
vn -0.0000 -1.0000 -0.0000
vn -0.0001 -1.0000 -0.0000
vn 0.0001 -1.0000 -0.0000
vt 0.563990 0.108342
vt 0.897629 0.244082
vt 0.543498 0.080348
vt 0.568170 0.110755
vt 0.546685 0.078242
vt 0.568170 0.154730
vt 0.906074 0.223696
vt 0.564792 0.117875
vt 0.564097 0.154688
vt 0.910379 0.202054
vt 0.561543 0.122273
vt 0.560317 0.154529
vt 0.910379 0.179988
vt 0.559289 0.124635
vt 0.556628 0.154221
vt 0.906074 0.158346
vt 0.557076 0.126178
vt 0.553033 0.153719
vt 0.897629 0.137959
vt 0.555261 0.127001
vt 0.549507 0.152988
vt 0.885370 0.119612
vt 0.553524 0.127398
vt 0.546069 0.152003
vt 0.869767 0.104009
vt 0.552088 0.127478
vt 0.542734 0.150743
vt 0.851420 0.091749
vt 0.550753 0.127281
vt 0.539531 0.149203
vt 0.831033 0.083305
vt 0.549650 0.126999
vt 0.536489 0.147376
vt 0.809391 0.079000
vt 0.548665 0.126521
vt 0.533640 0.145268
vt 0.787325 0.079000
vt 0.547835 0.125948
vt 0.531016 0.142892
vt 0.765683 0.083305
vt 0.547143 0.125227
vt 0.528645 0.140271
vt 0.745296 0.091749
vt 0.546590 0.124374
vt 0.526550 0.137432
vt 0.726949 0.104009
vt 0.546210 0.123403
vt 0.524745 0.134408
vt 0.711347 0.119612
vt 0.545526 0.122496
vt 0.523231 0.131212
vt 0.699087 0.137959
vt 0.545051 0.121500
vt 0.522035 0.127871
vt 0.690642 0.158346
vt 0.544714 0.120522
vt 0.521178 0.124410
vt 0.686338 0.179988
vt 0.544580 0.119505
vt 0.520676 0.120867
vt 0.686338 0.202054
vt 0.544609 0.118454
vt 0.520536 0.117276
vt 0.690642 0.223696
vt 0.544852 0.117409
vt 0.520758 0.113676
vt 0.699087 0.244083
vt 0.545331 0.116333
vt 0.521331 0.110100
vt 0.711347 0.262430
vt 0.546055 0.115319
vt 0.522237 0.106578
vt 0.726949 0.278033
vt 0.546651 0.113791
vt 0.523465 0.103125
vt 0.745297 0.290292
vt 0.547552 0.112394
vt 0.525008 0.099771
vt 0.765683 0.298736
vt 0.548646 0.110982
vt 0.526855 0.096544
vt 0.787325 0.303041
vt 0.550057 0.109767
vt 0.528987 0.093465
vt 0.809391 0.303041
vt 0.551906 0.108589
vt 0.531400 0.090545
vt 0.831033 0.298736
vt 0.554142 0.107732
vt 0.534069 0.087787
vt 0.851420 0.290292
vt 0.557113 0.107169
vt 0.869767 0.278033
vt 0.537014 0.085167
vt 0.560679 0.107216
vt 0.885370 0.262430
vt 0.540215 0.082665
vt 0.202856 0.031361
vt 0.630616 0.602955
vt 0.538089 0.906938
vt 0.000117 0.031361
vt 0.202856 0.999884
vt 0.202856 0.000118
vt 0.659481 0.614910
vt 0.000117 0.000118
vt 0.000117 0.999884
vt 0.568731 0.913033
vt 0.202856 0.968639
vt 0.685458 0.632269
vt 0.000117 0.968639
vt 0.599975 0.913033
vt 0.202856 0.937397
vt 0.707550 0.654360
vt 0.000117 0.937397
vt 0.630616 0.906938
vt 0.202856 0.906155
vt 0.724907 0.680338
vt 0.000117 0.906155
vt 0.659481 0.894981
vt 0.202856 0.874912
vt 0.736863 0.709202
vt 0.000117 0.874912
vt 0.685458 0.877624
vt 0.202856 0.843670
vt 0.742959 0.739845
vt 0.000117 0.843670
vt 0.707550 0.855532
vt 0.202856 0.812428
vt 0.742959 0.771088
vt 0.000117 0.812428
vt 0.724908 0.829555
vt 0.202856 0.781185
vt 0.736863 0.801729
vt 0.000117 0.781185
vt 0.736864 0.800690
vt 0.202856 0.749943
vt 0.724907 0.830593
vt 0.000117 0.749943
vt 0.742959 0.770047
vt 0.202856 0.718700
vt 0.707550 0.856571
vt 0.000117 0.718700
vt 0.742959 0.738805
vt 0.202856 0.687458
vt 0.685458 0.878664
vt 0.000117 0.687454
vt 0.736864 0.708162
vt 0.202856 0.656212
vt 0.659481 0.896021
vt 0.000117 0.656212
vt 0.724908 0.679298
vt 0.202856 0.624969
vt 0.630616 0.907976
vt 0.000117 0.624969
vt 0.707550 0.653320
vt 0.202856 0.593727
vt 0.599974 0.914072
vt 0.000117 0.593727
vt 0.685458 0.631228
vt 0.202856 0.562485
vt 0.568731 0.914072
vt 0.000117 0.562485
vt 0.659481 0.613872
vt 0.202856 0.531242
vt 0.538089 0.907976
vt 0.000117 0.531242
vt 0.630616 0.601915
vt 0.202856 0.500000
vt 0.509224 0.896021
vt 0.000117 0.500000
vt 0.599974 0.595820
vt 0.202856 0.468758
vt 0.483247 0.878664
vt 0.000117 0.468758
vt 0.568731 0.595820
vt 0.202856 0.437515
vt 0.461155 0.856571
vt 0.000117 0.437515
vt 0.538089 0.601915
vt 0.202856 0.406273
vt 0.443798 0.830595
vt 0.000117 0.406273
vt 0.509225 0.613872
vt 0.202856 0.375031
vt 0.431841 0.801729
vt 0.000117 0.375031
vt 0.483247 0.631229
vt 0.202856 0.343788
vt 0.425746 0.771088
vt 0.000117 0.343788
vt 0.461155 0.653321
vt 0.202856 0.312546
vt 0.425746 0.739845
vt 0.000117 0.312546
vt 0.443798 0.679298
vt 0.202856 0.281300
vt 0.431841 0.709202
vt 0.000117 0.281300
vt 0.431842 0.708162
vt 0.202856 0.250057
vt 0.443798 0.680338
vt 0.000117 0.250057
vt 0.425747 0.738805
vt 0.202856 0.218815
vt 0.461155 0.654360
vt 0.000117 0.218815
vt 0.425747 0.770048
vt 0.202856 0.187572
vt 0.483247 0.632269
vt 0.000117 0.187572
vt 0.431842 0.800690
vt 0.202856 0.156330
vt 0.509224 0.614910
vt 0.000117 0.156330
vt 0.443798 0.829555
vt 0.202856 0.125088
vt 0.538088 0.602955
vt 0.000117 0.125088
vt 0.461156 0.855532
vt 0.202856 0.093845
vt 0.568731 0.596859
vt 0.483248 0.877624
vt 0.000117 0.093845
vt 0.202856 0.062603
vt 0.599974 0.596859
vt 0.509225 0.894981
vt 0.000117 0.062603
s 0
f 2/3/1 3/4/1 1/1/1
f 4/6/2 5/8/2 3/4/2
f 6/9/3 7/11/3 5/8/3
f 8/12/4 9/14/4 7/11/4
f 10/15/5 11/17/5 9/14/5
f 12/18/6 13/20/6 11/17/6
f 14/21/7 15/23/7 13/20/7
f 16/24/8 17/26/8 15/23/8
f 18/27/9 19/29/9 17/26/9
f 20/30/10 21/32/10 19/29/10
f 22/33/11 23/35/11 21/32/11
f 24/36/12 25/38/12 23/35/12
f 26/39/13 27/41/13 25/38/13
f 28/42/14 29/44/14 27/41/14
f 30/45/15 31/47/15 29/44/15
f 32/48/16 33/50/16 31/47/16
f 34/51/17 35/53/17 33/50/17
f 36/54/18 37/56/18 35/53/18
f 38/57/19 39/59/19 37/56/19
f 40/60/20 41/62/20 39/59/20
f 42/63/21 43/65/21 41/62/21
f 44/66/22 45/68/22 43/65/22
f 46/69/23 47/71/23 45/68/23
f 48/72/24 49/74/24 47/71/24
f 50/75/25 51/77/25 49/74/25
f 52/78/26 53/80/26 51/77/26
f 54/81/27 55/83/27 53/80/27
f 56/84/28 57/86/28 55/83/28
f 58/87/29 59/89/29 57/86/29
f 60/90/30 61/92/30 59/89/30
f 38/58/31 22/34/31 6/10/31
f 62/94/32 63/95/32 61/92/32
f 64/97/33 1/1/33 63/95/33
f 31/47/34 47/71/34 63/95/34
f 66/101/1 67/103/1 65/98/1
f 68/106/2 69/108/2 67/102/2
f 70/110/3 71/112/3 69/108/3
f 72/114/4 73/116/4 71/112/4
f 74/118/5 75/120/5 73/116/5
f 76/122/6 77/124/6 75/120/6
f 78/126/7 79/128/7 77/124/7
f 80/130/8 81/132/8 79/128/8
f 82/134/9 83/136/9 81/132/9
f 84/138/10 85/140/10 83/136/10
f 86/142/11 87/144/11 85/140/11
f 88/146/12 89/148/12 87/144/12
f 90/150/13 91/152/13 89/148/13
f 92/154/14 93/156/14 91/152/14
f 94/158/15 95/160/15 93/156/15
f 96/162/16 97/164/16 95/160/16
f 98/166/17 99/168/17 97/164/17
f 100/170/18 101/172/18 99/168/18
f 102/174/19 103/176/19 101/172/19
f 104/178/20 105/180/20 103/176/20
f 106/182/21 107/184/21 105/180/21
f 108/186/22 109/188/22 107/184/22
f 110/190/23 111/192/23 109/188/23
f 112/194/24 113/196/24 111/192/24
f 114/198/25 115/200/25 113/196/25
f 116/202/26 117/204/26 115/200/26
f 118/206/27 119/208/27 117/204/27
f 120/210/28 121/212/28 119/208/28
f 122/214/29 123/216/29 121/212/29
f 124/218/30 125/220/30 123/216/30
f 102/175/31 86/143/31 70/111/31
f 126/223/32 127/224/32 125/220/32
f 128/227/33 65/98/33 127/224/33
f 95/161/34 111/193/34 127/225/34
f 2/3/1 4/5/1 3/4/1
f 4/6/2 6/9/2 5/8/2
f 6/9/3 8/12/3 7/11/3
f 8/12/4 10/15/4 9/14/4
f 10/15/5 12/18/5 11/17/5
f 12/18/6 14/21/6 13/20/6
f 14/21/7 16/24/7 15/23/7
f 16/24/8 18/27/8 17/26/8
f 18/27/9 20/30/9 19/29/9
f 20/30/10 22/33/10 21/32/10
f 22/33/11 24/36/11 23/35/11
f 24/36/12 26/39/12 25/38/12
f 26/39/13 28/42/13 27/41/13
f 28/42/14 30/45/14 29/44/14
f 30/45/15 32/48/15 31/47/15
f 32/48/16 34/51/16 33/50/16
f 34/51/17 36/54/17 35/53/17
f 36/54/18 38/57/18 37/56/18
f 38/57/19 40/60/19 39/59/19
f 40/60/20 42/63/20 41/62/20
f 42/63/21 44/66/21 43/65/21
f 44/66/22 46/69/22 45/68/22
f 46/69/23 48/72/23 47/71/23
f 48/72/24 50/75/24 49/74/24
f 50/75/25 52/78/25 51/77/25
f 52/78/26 54/81/26 53/80/26
f 54/81/27 56/84/27 55/83/27
f 56/84/28 58/87/28 57/86/28
f 58/87/29 60/90/29 59/89/29
f 60/90/30 62/94/30 61/92/30
f 6/10/31 4/7/31 2/2/31
f 2/2/31 64/96/31 62/93/31
f 62/93/31 60/91/31 58/88/31
f 58/88/31 56/85/31 54/82/31
f 54/82/31 52/79/31 50/76/31
f 50/76/31 48/73/31 46/70/31
f 46/70/31 44/67/31 42/64/31
f 42/64/31 40/61/31 38/58/31
f 38/58/31 36/55/31 34/52/31
f 34/52/31 32/49/31 30/46/31
f 30/46/31 28/43/31 26/40/31
f 26/40/31 24/37/31 22/34/31
f 22/34/31 20/31/31 18/28/31
f 18/28/31 16/25/31 14/22/31
f 14/22/31 12/19/31 10/16/31
f 10/16/31 8/13/31 6/10/31
f 6/10/31 2/2/31 62/93/31
f 62/93/31 58/88/31 54/82/31
f 54/82/31 50/76/31 46/70/31
f 46/70/31 42/64/31 38/58/31
f 38/58/31 34/52/31 30/46/31
f 30/46/31 26/40/31 22/34/31
f 22/34/31 18/28/31 14/22/31
f 14/22/31 10/16/31 6/10/31
f 6/10/31 62/93/31 54/82/31
f 54/82/31 46/70/31 38/58/31
f 38/58/31 30/46/31 22/34/31
f 22/34/31 14/22/31 6/10/31
f 6/10/31 54/82/31 38/58/31
f 62/94/32 64/97/32 63/95/32
f 64/97/33 2/3/33 1/1/33
f 63/95/34 1/1/34 3/4/34
f 3/4/34 5/8/34 7/11/34
f 7/11/34 9/14/34 11/17/34
f 11/17/34 13/20/34 15/23/34
f 15/23/34 17/26/34 19/29/34
f 19/29/34 21/32/34 23/35/34
f 23/35/34 25/38/34 27/41/34
f 27/41/34 29/44/34 31/47/34
f 31/47/34 33/50/34 35/53/34
f 35/53/34 37/56/34 39/59/34
f 39/59/34 41/62/34 43/65/34
f 43/65/34 45/68/34 47/71/34
f 47/71/34 49/74/34 51/77/34
f 51/77/34 53/80/34 55/83/34
f 55/83/34 57/86/34 59/89/34
f 59/89/34 61/92/34 63/95/34
f 63/95/34 3/4/34 7/11/34
f 7/11/34 11/17/34 15/23/34
f 15/23/34 19/29/34 23/35/34
f 23/35/34 27/41/34 31/47/34
f 31/47/34 35/53/34 39/59/34
f 39/59/34 43/65/34 47/71/34
f 47/71/34 51/77/34 55/83/34
f 55/83/34 59/89/34 63/95/34
f 63/95/34 7/11/34 15/23/34
f 15/23/34 23/35/34 31/47/34
f 31/47/34 39/59/34 47/71/34
f 47/71/34 55/83/34 63/95/34
f 63/95/34 15/23/34 31/47/34
f 66/101/1 68/105/1 67/103/1
f 68/106/2 70/110/2 69/108/2
f 70/110/3 72/114/3 71/112/3
f 72/114/4 74/118/4 73/116/4
f 74/118/5 76/122/5 75/120/5
f 76/122/6 78/126/6 77/124/6
f 78/126/7 80/130/7 79/128/7
f 80/130/8 82/134/8 81/132/8
f 82/134/9 84/138/9 83/136/9
f 84/138/10 86/142/10 85/140/10
f 86/142/11 88/146/11 87/144/11
f 88/146/12 90/150/12 89/148/12
f 90/150/13 92/154/13 91/152/13
f 92/154/14 94/158/14 93/156/14
f 94/158/15 96/162/15 95/160/15
f 96/162/16 98/166/16 97/164/16
f 98/166/17 100/170/17 99/168/17
f 100/170/18 102/174/18 101/172/18
f 102/174/19 104/178/19 103/176/19
f 104/178/20 106/182/20 105/180/20
f 106/182/21 108/186/21 107/184/21
f 108/186/22 110/190/22 109/188/22
f 110/190/23 112/194/23 111/192/23
f 112/194/24 114/198/24 113/196/24
f 114/198/25 116/202/25 115/200/25
f 116/202/26 118/206/26 117/204/26
f 118/206/27 120/210/27 119/208/27
f 120/210/28 122/214/28 121/212/28
f 122/214/29 124/218/29 123/216/29
f 124/218/30 126/223/30 125/220/30
f 70/111/31 68/107/31 66/100/31
f 66/100/31 128/226/31 126/222/31
f 126/222/31 124/219/31 122/215/31
f 122/215/31 120/211/31 118/207/31
f 118/207/31 116/203/31 114/199/31
f 114/199/31 112/195/31 110/191/31
f 110/191/31 108/187/31 106/183/31
f 106/183/31 104/179/31 102/175/31
f 102/175/31 100/171/31 98/167/31
f 98/167/31 96/163/31 94/159/31
f 94/159/31 92/155/31 90/151/31
f 90/151/31 88/147/31 86/143/31
f 86/143/31 84/139/31 82/135/31
f 82/135/31 80/131/31 78/127/31
f 78/127/31 76/123/31 74/119/31
f 74/119/31 72/115/31 70/111/31
f 70/111/31 66/100/31 126/222/31
f 126/222/31 122/215/31 118/207/31
f 118/207/31 114/199/31 110/191/31
f 110/191/31 106/183/31 102/175/31
f 102/175/31 98/167/31 94/159/31
f 94/159/31 90/151/31 86/143/31
f 86/143/31 82/135/31 78/127/31
f 78/127/31 74/119/31 70/111/31
f 70/111/31 126/222/31 118/207/31
f 118/207/31 110/191/31 102/175/31
f 102/175/31 94/159/31 86/143/31
f 86/143/31 78/127/31 70/111/31
f 70/111/31 118/207/31 102/175/31
f 126/223/32 128/227/32 127/224/32
f 128/227/33 66/101/33 65/98/33
f 127/225/34 65/99/34 67/104/34
f 67/104/34 69/109/34 71/113/34
f 71/113/34 73/117/34 75/121/34
f 75/121/35 77/125/35 79/129/35
f 79/129/34 81/133/34 83/137/34
f 83/137/35 85/141/35 87/145/35
f 87/145/34 89/149/34 91/153/34
f 91/153/34 93/157/34 95/161/34
f 95/161/34 97/165/34 99/169/34
f 99/169/34 101/173/34 103/177/34
f 103/177/34 105/181/34 107/185/34
f 107/185/36 109/189/36 111/193/36
f 111/193/34 113/197/34 115/201/34
f 115/201/36 117/205/36 119/209/36
f 119/209/34 121/213/34 123/217/34
f 123/217/34 125/221/34 127/225/34
f 127/225/34 67/104/34 71/113/34
f 71/113/34 75/121/34 79/129/34
f 79/129/34 83/137/34 87/145/34
f 87/145/34 91/153/34 95/161/34
f 95/161/34 99/169/34 103/177/34
f 103/177/34 107/185/34 111/193/34
f 111/193/34 115/201/34 119/209/34
f 119/209/34 123/217/34 127/225/34
f 127/225/34 71/113/34 79/129/34
f 79/129/34 87/145/34 95/161/34
f 95/161/34 103/177/34 111/193/34
f 111/193/34 119/209/34 127/225/34
f 127/225/34 79/129/34 95/161/34
